# xmcd CD database file
#
# Track frame offsets:
#	150
#	15421
#	29567
#	42486
#	55098
#	69829
#	82760
#	98122
#	109625
#	122113
#	132193
#	147542
#	162076
#	175984
#	195874
#	208416
#	219326
#	230479
#	242753
#	264650
#	279079
#	297293
#	311744
#
# Disc length: 4498 seconds
#
# Revision: 1
# Processed by: cddbd v1.5.2PL0 Copyright (c) Steve Scherf et al.
# Submitted via: CDex 1.70
#
DISCID=46119017
DTITLE=Various Artist - Great Black Music: roots (1927-1962): cd 2, 1952-1958
DYEAR=2014
DGENRE=black music
TTITLE0=Dinah Washington - feel like I wanna cry
TTITLE1=Thelonious Monk - little rootie tootie
TTITLE2=Big Mama Thornton - hound dog
TTITLE3=The Robins - smokey joe'scafe
TTITLE4=Cortijo y su Combo - el bombon de elena
TTITLE5=Muddy Waters - I just want to make love to you
TTITLE6=Ray Charles - sinner's prayer
TTITLE7=The Blind Boys of Alabama - this may be the last time
TTITLE8=Bo Diddley - Bo Diddley
TTITLE9=Richard Berry - Louie Louie
TTITLE10=Louis Armstrong - mack the knife
TTITLE11=Bienvenido Granda con La Sonora Matancera - oye mama
TTITLE12=Harry Belafonte - day-o
TTITLE13=Mahalia Jackson - god is so good (to me)
TTITLE14=James Brown - please please please
TTITLE15=Chuck Berry - roll over Beethoven
TTITLE16=Screamin' Jay Hawkins - I put a spell on you
TTITLE17=E.T. Mensah - all for you
TTITLE18=Sun Ra - India
TTITLE19=Count Lasher - cinemascope
TTITLE20=Grand Kalle and African Jazz  feat. Manu Dibango - miwela miwela
TTITLE21=Tito Puente - ran kan kan
TTITLE22=Miles Davis feat. C. Adderley and J. Coltrane - milestones
EXTD=YEAR: 2014
EXTT0=
EXTT1=
EXTT2=
EXTT3=
EXTT4=
EXTT5=
EXTT6=
EXTT7=
EXTT8=
EXTT9=
EXTT10=
EXTT11=
EXTT12=
EXTT13=
EXTT14=
EXTT15=
EXTT16=
EXTT17=
EXTT18=
EXTT19=
EXTT20=
EXTT21=
EXTT22=
PLAYORDER=
